<?xml version="1.0" standalone="no"?>
<!DOCTYPE svg PUBLIC "-//W3C//DTD SVG 20010904//EN"
 "http://www.w3.org/TR/2001/REC-SVG-20010904/DTD/svg10.dtd">
<svg version="1.0" xmlns="http://www.w3.org/2000/svg"
 width="859.000000pt" height="856.000000pt" viewBox="0 0 859.000000 856.000000"
 preserveAspectRatio="xMidYMid meet">

<g transform="translate(0.000000,856.000000) scale(0.100000,-0.100000)"
fill="#000000" stroke="none">
<path d="M3505 7200 l-170 -170 -597 0 -598 0 0 -345 0 -345 2395 0 2395 0 0
345 0 345 -598 0 -597 0 -170 170 -170 170 -860 0 -860 0 -170 -170z"/>
<path d="M2482 3878 l3 -2123 30 -85 c73 -211 250 -379 470 -447 57 -17 131
-18 1550 -18 1419 0 1493 1 1550 18 220 68 397 236 470 447 l30 85 3 2123 2
2122 -2055 0 -2055 0 2 -2122z"/>
</g>
</svg>
