<?xml version="1.0" standalone="no"?>
<!DOCTYPE svg PUBLIC "-//W3C//DTD SVG 20010904//EN"
 "http://www.w3.org/TR/2001/REC-SVG-20010904/DTD/svg10.dtd">
<svg version="1.0" xmlns="http://www.w3.org/2000/svg"
 width="50.000000pt" height="50.000000pt" viewBox="0 0 50.000000 50.000000"
 preserveAspectRatio="xMidYMid meet">

<g transform="translate(0.000000,50.000000) scale(0.100000,-0.100000)"
fill="#000000" stroke="none">
<path d="M147 436 c-45 -24 -46 -24 -52 -5 -7 21 -40 26 -47 7 -2 -7 0 -37 5
-65 9 -53 9 -53 45 -52 20 1 48 4 62 8 28 8 39 39 19 52 -10 6 -6 11 14 18 91
35 192 -17 224 -114 6 -20 16 -30 29 -30 41 0 22 77 -35 138 -65 71 -177 89
-264 43z"/>
<path d="M35 240 c-11 -18 16 -90 48 -127 66 -75 181 -96 271 -48 26 14 49 25
50 25 2 0 6 -9 9 -21 4 -14 12 -19 24 -17 14 3 18 12 16 43 -5 86 -7 88 -70
82 -66 -7 -83 -19 -65 -47 11 -18 9 -22 -15 -31 -76 -29 -168 13 -208 97 -24
51 -46 67 -60 44z"/>
</g>
</svg>
