<?xml version="1.0" standalone="no"?>
<!DOCTYPE svg PUBLIC "-//W3C//DTD SVG 20010904//EN"
 "http://www.w3.org/TR/2001/REC-SVG-20010904/DTD/svg10.dtd">
<svg version="1.0" xmlns="http://www.w3.org/2000/svg"
 width="50.000000pt" height="50.000000pt" viewBox="0 0 50.000000 50.000000"
 preserveAspectRatio="xMidYMid meet">

<g transform="translate(0.000000,50.000000) scale(0.100000,-0.100000)"
fill="#000000" stroke="none">
<path d="M335 441 c-3 -6 -40 -8 -88 -4 -72 5 -88 3 -124 -16 -62 -31 -113
-111 -113 -175 0 -80 70 -173 147 -196 56 -17 122 -6 171 30 43 31 82 100 82
146 0 22 8 33 30 46 40 23 55 62 40 110 -6 21 -20 44 -33 53 -24 17 -102 21
-112 6z m105 -41 c11 -11 20 -31 20 -45 0 -33 -42 -75 -75 -75 -30 0 -75 41
-75 68 0 11 9 31 21 46 26 33 79 36 109 6z m-163 2 c6 -4 11 -24 11 -45 0 -47
21 -80 62 -97 29 -12 32 -16 27 -48 -12 -69 -97 -142 -167 -142 -45 0 -107 36
-136 79 -76 115 3 261 141 261 28 0 55 -4 62 -8z"/>
<path d="M391 394 c0 -11 3 -14 6 -6 3 7 2 16 -1 19 -3 4 -6 -2 -5 -13z"/>
<path d="M369 358 c-7 -27 -5 -58 3 -56 13 5 20 58 7 58 -5 0 -9 -1 -10 -2z"/>
<path d="M190 285 c0 -78 2 -85 20 -85 18 0 20 7 20 63 0 34 3 72 6 85 5 19 2
22 -20 22 l-26 0 0 -85z"/>
<path d="M193 154 c-3 -8 -1 -20 5 -26 15 -15 43 8 35 28 -7 19 -32 18 -40 -2z"/>
</g>
</svg>
