<?xml version="1.0" standalone="no"?>
<!DOCTYPE svg PUBLIC "-//W3C//DTD SVG 20010904//EN"
 "http://www.w3.org/TR/2001/REC-SVG-20010904/DTD/svg10.dtd">
<svg version="1.0" xmlns="http://www.w3.org/2000/svg"
 width="50.000000pt" height="50.000000pt" viewBox="0 0 50.000000 50.000000"
 preserveAspectRatio="xMidYMid meet">

<g transform="translate(0.000000,50.000000) scale(0.100000,-0.100000)"
fill="#000000" stroke="none">
<path d="M155 473 c-11 -3 -24 -9 -29 -14 -14 -12 -8 -399 6 -416 13 -16 214
-18 238 -3 13 8 15 42 15 209 0 147 -3 203 -13 213 -13 13 -179 22 -217 11z
m205 -228 l0 -165 -105 0 -105 0 0 165 0 165 105 0 105 0 0 -165z m-85 -190
c0 -5 -10 -11 -22 -13 -16 -2 -23 2 -23 13 0 11 7 15 23 13 12 -2 22 -7 22
-13z"/>
</g>
</svg>
